<svg viewBox="0 0 14 14" xmlns="http://www.w3.org/2000/svg"><path d="m3.1926815 5.17091c-.1406134.16686-.3655949.2981-.5905764.27935-.028123-.22498.082493-.46496.2118576-.6112.1406134-.17061.3862182-.29248.5868267-.30185.022498.23248-.069369.46309-.2081079.6337m.2043582.32247c-.3262232-.0188-.6055752.18561-.7593125.18561-.1574871 0-.3937177-.17623-.6524464-.17061-.3355974.006-.6468218.19498-.8174327.49683-.35247105.60558-.091867 1.49988.2493545 1.99297.1668612.24373.3655949.51183.6280733.50245.2493545-.009.3468465-.16123.6468218-.16123.3018502 0 .3899679.16123.6524463.15748.2718527-.006.4424636-.24373.6093249-.48746.1893594-.27747.268103-.54558.2718527-.56057-.00562-.006-.5249569-.20436-.5305814-.80431-.00562-.50246.4105912-.74057.4293397-.75557-.2343557-.34872-.5999507-.38621-.7274402-.39559m1.8823452-.67869v3.65407h.5680783v-1.24865h.7855604c.7180659 0 1.2205246-.49308 1.2205246-1.20552s-.4949593-1.1999-1.2017762-1.1999zm.5680783.47808h.6543212c.4930844 0 .7743113.26248.7743113.72369 0 .46122-.2812269.72744-.7761862.72744h-.6524463zm3.0409999 3.20411c.3562207 0 .6861936-.17998.8361812-.46683h.011249v.43871h.5249567v-1.8186c0-.52683-.4218402-.86805-1.0705368-.86805-.6018255 0-1.0480388.34497-1.0649125.81743h.511833c.043121-.22498.2512293-.37309.5362059-.37309.3468464 0 .5418304.16123.5418304.45933v.20249l-.7086917.0431c-.6580709.0394-1.0142916.30935-1.0142916.77806.00187.47246.3693446.78743.8961763.78743zm.1537373-.43308c-.3018501 0-.4949592-.14624-.4949592-.36747 0-.23061.1856097-.36372.5399555-.38435l.6299482-.0394v.20623c0 .34123-.2906011.58496-.6749445.58496zm1.9217166 1.39863c.55308 0 .813683-.21186 1.04054-.85118l.995543-2.79352h-.577453l-.667445 2.15795h-.01125l-.667445-2.15795h-.592451l.959921 2.66041-.0525.16123c-.08624.27373-.226856.3806-.478085.3806-.045 0-.13124-.006-.166862-.009v.43872c.03375.007.174361.0131.217482.0131z"/></svg>